<?xml version="1.0" encoding="UTF-8"?>
<svg id="Layer_1" data-name="Layer 1" xmlns="http://www.w3.org/2000/svg" viewBox="0 0 72 72">
  <defs>
    <style>
      .cls-1 {
        fill: #fff;
        stroke-width: 0px;
      }
    </style>
  </defs>
  <path class="cls-1" d="m47.68,56.27c-.36,0-.73-.09-1.07-.26l-10.61-5.58-10.61,5.58c-.78.41-1.71.34-2.42-.18-.71-.52-1.06-1.38-.91-2.24l2.03-11.82-8.58-8.37c-.63-.62-.85-1.52-.58-2.35.27-.84.98-1.43,1.85-1.56l11.86-1.72,5.31-10.75c.39-.79,1.18-1.28,2.06-1.28s1.67.49,2.06,1.28l5.31,10.75,11.86,1.72c.87.13,1.58.72,1.85,1.56.27.84.05,1.74-.58,2.35l-8.59,8.37,2.03,11.82c.15.87-.2,1.73-.91,2.24-.4.29-.87.44-1.35.44Zm-27.48-23.51l7.04,6.86c.54.53.79,1.29.66,2.04l-1.66,9.67,8.7-4.57c.67-.35,1.47-.35,2.14,0l8.69,4.57-1.66-9.68c-.13-.74.11-1.5.66-2.03l7.04-6.86-9.72-1.41c-.75-.11-1.39-.58-1.73-1.25l-4.35-8.81-4.35,8.81c-.34.68-.98,1.15-1.73,1.26l-9.72,1.41Zm15.13,17.31s0,0,0,0h0Zm1.35,0h0s0,0,0,0Zm-12.46-9.05s0,0,0,.01h0Zm23.57,0h0s0,0,0,0Zm-13.08-22.35s0,0,0,0h0Z"/>
</svg>