<?xml version="1.0" encoding="UTF-8"?>
<svg id="Layer_1" data-name="Layer 1" xmlns="http://www.w3.org/2000/svg" viewBox="0 0 72 72">
  <defs>
    <style>
      .cls-1 {
        fill: #faab4d;
        stroke-width: 0px;
      }
    </style>
  </defs>
  <path class="cls-1" d="m36.38,17.84l5.64,11.43c.06.13.18.21.32.23l12.61,1.83c.35.05.49.48.24.73l-9.13,8.9c-.1.1-.15.24-.12.38l2.15,12.56c.06.35-.31.61-.62.45l-11.28-5.93c-.12-.07-.27-.07-.4,0l-11.28,5.93c-.31.16-.68-.1-.62-.45l2.15-12.56c.02-.14-.02-.28-.12-.38l-9.13-8.9c-.25-.25-.11-.68.24-.73l12.61-1.83c.14-.02.26-.11.32-.23l5.64-11.43c.16-.32.61-.32.77,0Z"/>
</svg>