<?xml version="1.0" encoding="UTF-8"?>
<svg id="Layer_1" data-name="Layer 1" xmlns="http://www.w3.org/2000/svg" viewBox="0 0 72 71.93">
  <defs>
    <style>
      .cls-1 {
        fill: #fff;
        fill-rule: evenodd;
        stroke-width: 0px;
      }
    </style>
  </defs>
  <path class="cls-1" d="m42.87,19.28c-6.14-6.54-16.64-1.87-16.64,7.48s10.51,14.01,16.64,7.48c3.86-4.11,3.86-10.85,0-14.96h0Zm-6.87-6.49c11.69,0,17.65,14.99,9.38,23.8-8.3,8.84-22.59,2.57-22.59-9.83,0-7.51,5.74-13.96,13.21-13.96h0Zm26.14,47.87c-9.52-16.69-42.76-16.69-52.28,0,14.18,15.01,38.1,15.02,52.28,0h0Zm-54.63-2.75C-10.64,34.4,6.14,0,36,0s46.64,34.4,28.49,57.92c-11.33-17.61-45.65-17.61-56.98,0Z"/>
</svg>