<?xml version="1.0" encoding="UTF-8"?>
<svg id="Layer_1" data-name="Layer 1" xmlns="http://www.w3.org/2000/svg" viewBox="0 0 72 72">
  <defs>
    <style>
      .cls-1 {
        fill: #fff;
        stroke-width: 0px;
      }
    </style>
  </defs>
  <path class="cls-1" d="m49.59,15.73h-27.19c-4.15,0-7.52,3.37-7.52,7.52v17.3c0,4.15,3.38,7.52,7.52,7.52h6.2l3.95,6.46.18.24c.81.95,2.01,1.49,3.27,1.49s2.46-.54,3.27-1.49l4.12-6.7h6.2c4.15,0,7.52-3.38,7.52-7.52v-17.3c0-4.15-3.38-7.52-7.52-7.52Zm3.78,24.82c0,2.09-1.7,3.79-3.78,3.79h-8.3l-4.93,8.07c-.26.21-.47.21-.73,0l-4.93-8.07h-8.3c-2.09,0-3.79-1.7-3.79-3.79v-17.3c0-2.09,1.7-3.79,3.79-3.79h27.19c2.09,0,3.78,1.7,3.78,3.79v17.3Z"/>
  <path class="cls-1" d="m45.48,28.8l-5.36-.75c-.29-.05-.54-.19-.63-.42l-2.44-4.79c-.44-.85-1.66-.85-2.1,0l-2.39,4.7c-.15.23-.34.38-.63.42l-5.46.75c-.93.14-1.32,1.27-.63,1.92l3.9,3.66c.2.19.29.47.24.7l-.93,5.26c-.15.89.88,1.6,1.71,1.17l4.78-2.44c.24-.14.54-.14.78,0l4.87,2.49c.88.42,1.85-.28,1.71-1.17l-.93-5.16c-.05-.28.05-.52.24-.7l3.95-3.71c.68-.61.34-1.74-.68-1.93Z"/>
</svg>