<?xml version="1.0" encoding="UTF-8"?>
<svg id="Layer_1" data-name="Layer 1" xmlns="http://www.w3.org/2000/svg" viewBox="0 0 72 72">
  <defs>
    <style>
      .cls-1 {
        fill: #ef3b2d;
        stroke-width: 0px;
      }
    </style>
  </defs>
  <path class="cls-1" d="m49.59,17.6h-27.19c-3.11,0-5.65,2.54-5.65,5.65v17.3c0,3.11,2.54,5.65,5.65,5.65h7.25l4.49,7.35c.96,1.12,2.75,1.12,3.71,0l4.49-7.35h7.25c3.11,0,5.65-2.54,5.65-5.65v-17.3c0-3.11-2.54-5.65-5.65-5.65Zm-3.43,13.13l-3.95,3.71c-.2.19-.29.42-.24.7l.93,5.16c.15.89-.83,1.6-1.71,1.17l-4.88-2.49c-.24-.14-.54-.14-.78,0l-4.78,2.44c-.83.42-1.85-.28-1.71-1.17l.93-5.26c.05-.23-.05-.52-.24-.7l-3.9-3.66c-.68-.66-.29-1.78.63-1.93l5.46-.75c.29-.05.49-.19.63-.42l2.39-4.69c.44-.85,1.66-.85,2.1,0l2.44,4.79c.1.23.34.38.63.42l5.36.75c1.02.19,1.37,1.31.68,1.93Z"/>
</svg>