<?xml version="1.0" encoding="UTF-8"?>
<svg id="Layer_1" data-name="Layer 1" xmlns="http://www.w3.org/2000/svg" viewBox="0 0 72 72">
  <defs>
    <style>
      .cls-1 {
        fill: #fff;
        stroke-width: 0px;
      }
    </style>
  </defs>
  <path class="cls-1" d="m47.13,15.58h-22.27c-1.71,0-3.11,1.39-3.11,3.11v34.64c0,.76.28,1.49.78,2.06,1.14,1.28,3.1,1.39,4.38.26l9.07-8.06,9.07,8.06c.57.5,1.3.78,2.06.78h.01c.44,0,.88-.1,1.26-.27,1.11-.5,1.83-1.61,1.83-2.83V18.68c0-1.71-1.39-3.11-3.11-3.11Zm-.63,36.34l-10.5-9.33-10.5,9.33V19.31h21v32.6Z"/>
</svg>