<?xml version="1.0" encoding="UTF-8"?>
<svg id="Layer_1" data-name="Layer 1" xmlns="http://www.w3.org/2000/svg" viewBox="0 0 72 72">
  <defs>
    <style>
      .cls-1 {
        fill: #fff;
        stroke-width: 0px;
      }
    </style>
  </defs>
  <path class="cls-1" d="m36,51.67c-14.77,0-23.36-13.55-23.72-14.13-.58-.95-.58-2.12,0-3.06.37-.59,8.95-14.14,23.73-14.14s23.36,13.55,23.72,14.13c.58.95.58,2.12,0,3.07h0c-.36.59-8.95,14.14-23.72,14.14Zm-20.26-15.66c1.49,2.2,8.74,11.93,20.26,11.93s18.75-9.71,20.26-11.93c-1.49-2.2-8.74-11.93-20.26-11.93s-18.75,9.71-20.26,11.93Zm20.26,9.3c-5.13,0-9.3-4.17-9.3-9.3s4.17-9.3,9.3-9.3,9.3,4.17,9.3,9.3-4.17,9.3-9.3,9.3Zm0-14.86c-3.07,0-5.56,2.49-5.56,5.56s2.49,5.56,5.56,5.56,5.56-2.49,5.56-5.56-2.49-5.56-5.56-5.56Z"/>
</svg>